<svg xmlns="http://www.w3.org/2000/svg" viewBox="0 0 800 600" fill="none">
  <defs>
    <linearGradient id="bg" x1="0" y1="0" x2="800" y2="600" gradientUnits="userSpaceOnUse">
      <stop stop-color="#001428"/>
      <stop offset="1" stop-color="#0c4a6e"/>
    </linearGradient>
    <linearGradient id="accent" x1="0" y1="0" x2="1" y2="1">
      <stop stop-color="#3B82F6"/>
      <stop offset="1" stop-color="#60A5FA"/>
    </linearGradient>
  </defs>
  <rect width="800" height="600" fill="url(#bg)"/>
  <circle cx="680" cy="120" r="180" fill="#3B82F6" opacity="0.12"/>
  <circle cx="120" cy="480" r="140" fill="#2563EB" opacity="0.08"/>
  <!-- Chart bars -->
  <rect x="120" y="320" width="48" height="120" rx="8" fill="url(#accent)" opacity="0.35"/>
  <rect x="200" y="260" width="48" height="180" rx="8" fill="url(#accent)" opacity="0.5"/>
  <rect x="280" y="200" width="48" height="260" rx="8" fill="url(#accent)" opacity="0.7"/>
  <rect x="360" y="240" width="48" height="200" rx="8" fill="url(#accent)" opacity="0.55"/>
  <rect x="440" y="180" width="48" height="280" rx="8" fill="url(#accent)"/>
  <!-- Trend line -->
  <path d="M130 380 L220 300 L310 340 L400 220 L490 260 L560 160" stroke="#93C5FD" stroke-width="4" stroke-linecap="round" stroke-linejoin="round" opacity="0.9"/>
  <circle cx="560" cy="160" r="8" fill="#fff"/>
  <!-- Document icon -->
  <rect x="520" y="380" width="200" height="140" rx="16" fill="rgba(255,255,255,0.06)" stroke="rgba(255,255,255,0.15)" stroke-width="2"/>
  <rect x="548" y="408" width="100" height="8" rx="4" fill="rgba(255,255,255,0.4)"/>
  <rect x="548" y="428" width="144" height="6" rx="3" fill="rgba(255,255,255,0.2)"/>
  <rect x="548" y="444" width="120" height="6" rx="3" fill="rgba(255,255,255,0.15)"/>
  <rect x="548" y="472" width="80" height="28" rx="6" fill="url(#accent)" opacity="0.8"/>
</svg>
